<svg id="Layer_1" data-name="Layer 1" xmlns="http://www.w3.org/2000/svg" viewBox="0 0 943.03 232.57"><defs><style>.cls-1,.cls-3{fill:#fff;}.cls-2{fill:#ed1c24;}.cls-3{fill-rule:evenodd;}</style></defs><title>totally-wicked-logo-the-worlds-premier-vaping-retailer</title><path class="cls-1" d="M89.64,232.57A6.58,6.58,0,0,1,85,230.7l-.08-.07a161.87,161.87,0,0,1-34.49-42.9l-3.28.66-1-1.87c-2.63-4.94-6.44-9.6-10.48-14.54-2.83-3.48-5.77-7.07-8.57-11.08C21,152.11,14,140.09,14,124.87a6.64,6.64,0,0,1,1.93-4.66,6,6,0,0,1,.82-.69c-1.41-5.61-1.32-11-1.22-16.76,0-.84,0-1.7,0-2.56l-2.06-.79v-2A70.3,70.3,0,0,1,19.25,69.7l0-.06C15.17,61,13.1,53,13.06,34.05l-1.88-5v-.51c0-9.17-.56-11.91-.9-13.55a11.07,11.07,0,0,1-.23-4.22c.41-3.5,2.29-4.24,3.79-4.24a6.56,6.56,0,0,1,1.42.2l1.46-3.87,1.84-.11h.53a9.05,9.05,0,0,1,8.84,7c.56,2.39.13,5.48-.37,9.07-.57,4.12-1.22,8.78-.21,12C29.14,36.57,33.76,42,36.86,42a2.43,2.43,0,0,0,.55-.07l1.6-.41.27.27C55,27.42,75.63,19.22,96.22,19.22c19,0,35.59,6.45,48.05,18.69l1.45-1.27c3.56-3.1,8.4-7.3,9.87-11.4v-8l.14-.42c.76-2.4.43-2.88-.15-3.76a6.78,6.78,0,0,1-1.16-5.95c.72-3.07,2.64-3.53,3.72-3.53a4.66,4.66,0,0,1,2.12.58L161.49,0l2.24.13a9,9,0,0,1,8.45,8c.71,6.16.12,12.49-.41,18.08-.12,1.17-.22,2.33-.32,3.44l2.3-1.48v5.2c0,17-5.06,26.24-9.13,33.65-.53,1-1.05,1.9-1.52,2.8l3.83,4-.84,1.76c-.45.94-.92,1.86-1.4,2.73a95.9,95.9,0,0,1,1.44,16.47l1.61,9.13v.25c0,7.54-.26,9.59-2.14,15.41a7.55,7.55,0,0,1,.74.64,6.64,6.64,0,0,1,1.93,4.66c0,12-6.2,20.28-12.2,28.25-.79,1-1.58,2.09-2.35,3.14l0,0,2.89,2.5-1.47,2.1A84.35,84.35,0,0,1,137,179.82a33.74,33.74,0,0,0-3.19,4.3l2.73,2.87-1,1.81c-11.08,20.68-24.19,30-32.87,36.13a51.79,51.79,0,0,0-7.12,5.62,6.57,6.57,0,0,1-4.74,2Z" transform="translate(-9.95)"/><path d="M165.44,124.81a3.74,3.74,0,0,0-3.34-3.73c2.48-7.45,2.81-8.72,2.81-17L163.3,95a91.74,91.74,0,0,0-1.59-17.22c.61-1,1.22-2.18,1.82-3.45L160,70.63c-.06-.24-.13-.48-.2-.72,3.9-8,11.09-16.86,11.08-36.64l-2.57,1.66c0-7.3,2.11-17.22,1-26.56a6.19,6.19,0,0,0-5.79-5.47l-1.42,4.78c-3-.18-4.28-2.95-5,0-1,4.37,3.33,3.34,1.25,9.93v8.05c-2,6.57-10.63,12.52-14.08,16l-.17.18C132.62,29.44,116.25,22,96.22,22c-21.4,0-42,9.15-57,23.7-.38-.34-.75-.7-1.11-1.07-5.33,1.36-11.4-6.39-13.46-13s1.55-16.87.52-21.28a6.24,6.24,0,0,0-6.45-4.81l-1.57,4.2c-3,.17-3.93-1.7-4.28,1.32C12.4,15,14,13,14,28.47l1.87,5c0,19.75,2.25,27.12,6,35.06.09.19.18.39.28.59v1A67.73,67.73,0,0,0,16.33,97.4l2.07.79c0,8.27-.72,15.44,1.76,22.89a3.74,3.74,0,0,0-3.34,3.73c0,13.62,5.88,24.7,12.65,34.4s14.61,17.22,19.23,25.92l3.26-.65a159.28,159.28,0,0,0,35,44.08,3.78,3.78,0,0,0,2.67,1.11h1.21a3.74,3.74,0,0,0,2.66-1.11c6.46-6.94,24.81-13.61,39.57-41.17l-2.78-2.91a36.89,36.89,0,0,1,4.76-6.8,81.93,81.93,0,0,0,17.73-18.47l-2.85-2.48-.06,0c.51-.73,1-1.45,1.56-2.17C157.92,145.67,165.44,137.41,165.44,124.81Zm-11.95,2a7.88,7.88,0,0,1,.76.9,5.36,5.36,0,0,1,1,2.47,1.46,1.46,0,0,0-.48-.89,1.55,1.55,0,0,0-.36-.19c-1-2.29-3.94-4.28-8.16-5.74a60.69,60.69,0,0,0-19-2.76c-13.69,0-28,3.79-31.73,12.7a2.65,2.65,0,0,0-.48.52,4.2,4.2,0,0,0-.59,1.18h0c2.63-10.69,18.2-14.93,32.84-14.94a61,61,0,0,1,19.17,2.8A18.52,18.52,0,0,1,153.49,126.77ZM140.5,159h-.9a114,114,0,0,1-21.15-2l-.9-.19c-1-.21-2-.44-3-.7-1.64-.42-3.25-.91-4.81-1.47-.94-.33-1.85-.69-2.74-1.07l-.88-.4c-6.66-3.09-11.58-7.77-11.57-14.87h0q0-.48,0-1c0-.14,0-.27,0-.4s0-.12,0-.17c.31-2.74,1.29-3.58,2.89-3.6,2.47,0,6.51,2.3,11.34,4.66s10.5,4.73,16.4,4.79h.16c6,0,12.23-3.29,17.44-6.56s9.47-6.53,11.11-6.48c.5,0,.7.18.77,1,0,.25,0,.49,0,.73s0,.24,0,.36a28.64,28.64,0,0,1-.33,4.21,39.49,39.49,0,0,1-3.15,10.43,41.57,41.57,0,0,1-1.9,3.71,26.27,26.27,0,0,1-6.39,7.85A5.43,5.43,0,0,1,140.5,159Zm16.62-30.1c0-.12,0-.24,0-.36h.65a41,41,0,0,1-.73,4.63A33.91,33.91,0,0,0,157.12,128.93ZM125.51,60.14c3.64-1.27,11.42-2.74,18-4.92a43.11,43.11,0,0,0,6-2.41,19.23,19.23,0,0,0,2.09-1.24,10.19,10.19,0,0,0,1.59-1.31,37.74,37.74,0,0,0,4.89-6.41,91.8,91.8,0,0,1-2.36,15.29c-.31,1.24-.63,2.39-1,3.46A46.55,46.55,0,0,1,152.35,69a2.56,2.56,0,0,0-.11.24,32.59,32.59,0,0,1-1.79,3.22L136.39,61l-10.58-.62-.83-.05Zm10.75-12.65a45.45,45.45,0,0,1-6,2.57,51,51,0,0,1-5.79,1.63c-.72.16-1.29.26-1.65.32l-.4.07h-.07A6.19,6.19,0,0,0,119.26,63l28,22.75a6.19,6.19,0,0,0,7.34.35A15.68,15.68,0,0,0,157.08,84a68.75,68.75,0,0,1,1.34,13.41A67,67,0,0,1,153.36,123c-13.27-9.75-57.23-9.4-60.87,11.94H89.14c-3.59-21.08-46.56-21.68-60.38-12.29a67.65,67.65,0,0,1-3.29-40c1.23,3.89,1.77,6.55,2.3,6.89a6.17,6.17,0,0,0,3.47,1,6.28,6.28,0,0,0,3.94-1.39l28.27-23a6.25,6.25,0,0,0-3.12-11A47.61,47.61,0,0,1,51.91,53a43.08,43.08,0,0,1-7.82-3.66,67.27,67.27,0,0,1,92.17-1.81ZM24.2,46.86a37.82,37.82,0,0,0,4.93,6.46A21.05,21.05,0,0,0,31,55c.75.62,1.58,1.23,2.46,1.83s1.77,1.17,2.71,1.74a120.85,120.85,0,0,0,16.62,8L32,75.7a34.55,34.55,0,0,1-2.6-5c-.31-.72-.62-1.48-.92-2.31-.23-.63-.46-1.29-.69-2-.45-1.4-.89-3-1.3-4.64A93.47,93.47,0,0,1,24.2,46.86Zm5,79a21,21,0,0,1,6-3A61,61,0,0,1,54.35,120c14.74,0,30.44,4.31,32.9,15.17v.07a4.73,4.73,0,0,0-.68-1.48,2.71,2.71,0,0,0-.49-.52c-3.75-8.91-18-12.71-31.73-12.7a60.58,60.58,0,0,0-19,2.76,17.63,17.63,0,0,0-6.92,3.92l-.09.1a6,6,0,0,0-1.16,1.73.92.92,0,0,0-.35.19,1.45,1.45,0,0,0-.49.9,5.24,5.24,0,0,1,.63-1.87A8.16,8.16,0,0,1,29.18,125.86Zm12,33.17c-1.41-.13-3.33-1.54-5.29-3.81A33.77,33.77,0,0,1,32.2,150c-.56-1-1.1-2-1.61-3.09a36.89,36.89,0,0,1-3.76-15.26c0-.19,0-.37,0-.55s0-.36,0-.54h0c.08-.83.28-1,.78-1,1.64,0,5.93,3.21,11.1,6.48s11.45,6.56,17.45,6.56h.15c5.9-.06,11.57-2.44,16.41-4.8s8.87-4.67,11.33-4.65c1.71,0,2.71,1,2.94,4.17,0,.34,0,.67,0,1a13.92,13.92,0,0,1-.46,3.6c-2,7.58-10.41,11.84-19.55,14.21A107.88,107.88,0,0,1,42,159h-.9Zm-9.4-8.76c-.37-.63-.72-1.28-1.06-2C31,149,31.37,149.64,31.74,150.27Zm-7.21-21.58s0-.08,0-.12h0A.49.49,0,0,0,24.53,128.69Zm16.58,30.88v0h0Zm2.15,0h0ZM127,182.71c-7,13.09-16.16,25-23.9,34.29l-1.18.33c-3.87,4.66-7.36-.85-9.81,1.81l-1.86,2c-6.1-6.45-23.48-16.89-35-38.42-3.78-7-8.91-13.5-13.87-20,7.71,0,45.73-1.32,47.89-22.77h3c2.23,22.11,42.56,22.79,48.52,22.77C135.9,169.21,130.77,175.67,127,182.71Z" transform="translate(-9.95)"/><path d="M103.88,187.13l.11.15,0-.07Z" transform="translate(-9.95)"/><path d="M120,172.74l-.49-.21-.25.35a87.53,87.53,0,0,0-10.34-1c-4.53,0-7.66,0-12.62,1.37a17.76,17.76,0,0,1-4.75.8A19.7,19.7,0,0,1,86,172.87a35.59,35.59,0,0,0-9.94-1.26c-.84,0-1.66,0-2.48.06l-15.35-.22,0,.54s1.9.24,4.29.63l.14.37-.07.44s.35.82,1.07,2.14c.92,2.5,4.65,12.24,8,15.3s6.14,8.47,18.93,8.47h.09c.93,0,1.91,0,2.94-.08,15.43-.83,19.42-6.58,22.4-13.92a79.92,79.92,0,0,0,3.67-11.12c2.08-.16,3.31-.22,3.31-.22l0-.54s-1.26-.21-3.06-.48C120,172.82,120,172.74,120,172.74ZM72,190.47c-1.83-1.63-3.89-5.57-5.45-9.07-.47-1.06-.9-2.09-1.27-3-.86-2.09-1.39-3.6-1.39-3.6l-.25.09.25-.1-.59-1.5c1.68,2,5.12,6.08,8.29,9.52.64.69,1.26,1.36,1.86,2l.2.21a38.93,38.93,0,0,0,3,2.83l.78.6c3.86,2.85,8.06,3.8,16.69,3.79h1a20.53,20.53,0,0,0,14.14-5.66c.37-.34.72-.68,1.06-1,.7-.72,1.34-1.45,1.92-2.15.41-.5.78-1,1.13-1.45l.58-.78c2-2.78,3.86-5.36,5-6.89l.21-.28.06-.09,0,.09a2.68,2.68,0,0,1-.07.27c-.21.85-.51,2-.94,3.4-.62,2-1.49,4.6-2.67,7.48-3,7.25-6.61,12.7-21.93,13.58-1,.06-2,.08-2.91.08C78,198.78,75.63,193.69,72,190.47Zm1.56-18.27v0c.81,0,1.63,0,2.46,0a35.11,35.11,0,0,1,9.79,1.23,20,20,0,0,0,5.74,1.16,18.49,18.49,0,0,0,4.89-.82c4.91-1.35,8-1.35,12.48-1.35a83.5,83.5,0,0,1,10,1l-.23.32,0,.07c-3.14.24-7.73.66-12.83,1.3-7,.88-10,1.38-13.87,1.38-1.35,0-2.81-.06-4.58-.19-6.8-.51-13.18-.53-16.15-2A20.15,20.15,0,0,0,67.15,173c-1.33-.31-2.74-.57-4.05-.8l-.11-.12Zm37.62,11.64h0a27.51,27.51,0,0,1-2.69,2.72h-.31l-.1-.12a1.39,1.39,0,0,1-.09.54,1.59,1.59,0,0,1-.69.83,7.12,7.12,0,0,1-1.08.49,4.72,4.72,0,0,1-1.94.51s0-.07,0-.14c0,.34,0,.62,0,.62l-4.47,1.18s-.48-1.27-.76-2.27a14.09,14.09,0,0,1,.3,2.34,12.43,12.43,0,0,1-3.9.53,3,3,0,0,1-1.58-.65A3.51,3.51,0,0,1,91,191c-1.91-.3-3-.53-3-.53s0-.14-.07-.37a.92.92,0,0,1,0,.19,11.41,11.41,0,0,1-3.1.12c-1.59-.18-1.91-.6-1.91-.6-.16.18-1.35-.29-3.26-.65l-.09,0A18.17,18.17,0,0,1,77.73,188a1.42,1.42,0,0,1-.08-.42c0,.11-.05.21-.07.31l-.58-.45a39.76,39.76,0,0,1-3.35-3.21l-.11-.11-1.39-1.48.41-.15,1,.18,0,1.15c0-.09.07-.17.12-.26.64-1.19,1.35-.6,2.79-.48s1.35.7,1.42,1.72a6,6,0,0,1,3.11-.59,3.15,3.15,0,0,1,2.7,1.9l0,.12c.41-.27,1.09-.12,1.77-.12,1,0,1.6.24,1.91.83a6.19,6.19,0,0,1,.37,1.62c0-.68.15-1.33.58-1.56a3.35,3.35,0,0,1,2.15-.24c1.27,0,3,0,3.18,1.07l0,.19c0-.41,0-.72.14-.76.32-.12,1.14-.49,1.14-.49.59-.19,3-1,3.63.23a4.46,4.46,0,0,1,.29.76,1.83,1.83,0,0,1-.06-.64c.16-.48.8-.65.8-.65a9,9,0,0,1,2.78-.24,1.88,1.88,0,0,1,.64.23v-.82s-.32-1.19,1.19-1.43a3.51,3.51,0,0,1,2.26.32l.37-.5s-.72-1.19.79-1.36,3.26-.36,3.26-.36l.23,1.53.07-2.11,1-.18.59.22C112.38,182.42,111.82,183.13,111.2,183.84Zm-42.92-5.56-.47-.54a18.22,18.22,0,0,1-1-2.88L70.19,176l.66,3.86s-1.11-.46-2-.95Zm19-1.5c2.2.79,4.54,3.48,4.54,3.48l.24,4L92,179.47a10.72,10.72,0,0,1,2.15-2.06,4.13,4.13,0,0,1,1.16-.56,6.34,6.34,0,0,1,1.92-.18c.54,0,1.15.08,1.86.15,2.38.23,2.46,3.5,2.46,4l.08,2.61A6.87,6.87,0,0,1,98,184.72a20.68,20.68,0,0,1-5.88-.48A16.05,16.05,0,0,1,87,185a14.27,14.27,0,0,1-4.29-.6s-.4-4.1,0-5.22a3.67,3.67,0,0,1,2.52-2.51Zm21.24,0a2,2,0,0,1,1.27-1.37,1.84,1.84,0,0,1,2.15,1.9c.08,1.31.16,1.9.16,1.9a16.71,16.71,0,0,1-1.59,1.25,5.31,5.31,0,0,1-1.75.72V181l-7,2.28-.28-4.68s1.74-2.59,3.81-2.71a4,4,0,0,1,3.1,1l.38,3.88Zm3.23-1.11,3.66-1.07-1.12,3.15-1.43.89Zm-29.24,8.38s-6.12-.8-6.52-1.75-.16-5.82-.16-5.82a13.52,13.52,0,0,1,2.86.48,9,9,0,0,1,3.7,2.88Zm-6.84-2A10.3,10.3,0,0,1,71.87,181c-1.2-.84-1.83-5.29-.8-5.29a15.93,15.93,0,0,1,4.53.95Zm44.16-8.44h0l0-.07,0-.09.72.11Z" transform="translate(-9.95)"/><path class="cls-2" d="M24.53,128.69a.49.49,0,0,1,0-.12h0S24.52,128.65,24.53,128.69Z" transform="translate(-9.95)"/><path class="cls-2" d="M157.08,84a15.68,15.68,0,0,1-2.48,2.15,6.19,6.19,0,0,1-7.34-.35L119.26,63a6.19,6.19,0,0,1,3.09-10.95h.07l.4-.07c.36-.06.93-.16,1.65-.32a51,51,0,0,0,5.79-1.63,45.45,45.45,0,0,0,6-2.57A67.27,67.27,0,0,0,44.09,49.3,43.08,43.08,0,0,0,51.91,53a47.61,47.61,0,0,0,8.42,2.21,6.25,6.25,0,0,1,3.12,11l-28.27,23a6.28,6.28,0,0,1-3.94,1.39,6.17,6.17,0,0,1-3.47-1c-.53-.34-1.07-3-2.3-6.89a67.65,67.65,0,0,0,3.29,40c13.82-9.39,56.79-8.79,60.38,12.29h3.35c3.64-21.34,47.6-21.69,60.87-11.94a67,67,0,0,0,5.06-25.62A68.75,68.75,0,0,0,157.08,84Z" transform="translate(-9.95)"/><path class="cls-2" d="M92.34,140h-3c-2.16,21.45-40.18,22.73-47.89,22.77,5,6.48,10.09,12.94,13.87,20,11.49,21.53,28.87,32,35,38.42l1.86-2c2.45-2.66,5.94,2.85,9.81-1.81l1.18-.33c7.74-9.32,16.9-21.2,23.9-34.29,3.78-7,8.91-13.5,13.87-20C134.9,162.75,94.57,162.07,92.34,140ZM123,174s-1.23.06-3.31.22A79.92,79.92,0,0,1,116,185.34c-3,7.34-7,13.09-22.4,13.92-1,.05-2,.08-2.94.08h-.09c-12.79,0-15.47-5.37-18.93-8.47s-7.12-12.8-8-15.3c-.72-1.32-1.07-2.14-1.07-2.14l.07-.44-.14-.37c-2.39-.39-4.29-.63-4.29-.63l0-.54,15.35.22c.82,0,1.64-.06,2.48-.06A35.59,35.59,0,0,1,86,172.87,19.7,19.7,0,0,0,91.58,174a17.76,17.76,0,0,0,4.75-.8c5-1.36,8.09-1.37,12.62-1.37a87.53,87.53,0,0,1,10.34,1l.25-.35.49.21s0,.08,0,.24c1.8.27,3,.48,3.06.48Z" transform="translate(-9.95)"/><path class="cls-2" d="M157.12,128.93a33.91,33.91,0,0,1-.1,4.27,41,41,0,0,0,.73-4.63h-.65C157.11,128.69,157.12,128.81,157.12,128.93Z" transform="translate(-9.95)"/><path class="cls-2" d="M125.81,60.38l-.3-.24-.53.19Z" transform="translate(-9.95)"/><path class="cls-2" d="M119.84,173.6l0,.07h0l.74,0-.72-.11Z" transform="translate(-9.95)"/><path class="cls-2" d="M71.23,174.24c3,1.48,9.35,1.5,16.15,2,1.77.13,3.23.19,4.58.19,3.83,0,6.88-.5,13.87-1.38,5.1-.64,9.69-1.06,12.83-1.3l0-.07.23-.32a83.5,83.5,0,0,0-10-1c-4.53,0-7.57,0-12.48,1.35a18.49,18.49,0,0,1-4.89.82,20,20,0,0,1-5.74-1.16,35.11,35.11,0,0,0-9.79-1.23c-.83,0-1.65,0-2.46,0h0L63,172.06l.11.12c1.31.23,2.72.49,4.05.8A20.15,20.15,0,0,1,71.23,174.24Z" transform="translate(-9.95)"/><path class="cls-2" d="M119,174.27c-1.1,1.53-3,4.11-5,6.89l-.58.78c-.35.47-.72.95-1.13,1.45-.58.7-1.22,1.43-1.92,2.15-.34.34-.69.68-1.06,1a20.53,20.53,0,0,1-14.14,5.66h-1c-8.63,0-12.83-.94-16.69-3.79l-.78-.6a38.93,38.93,0,0,1-3-2.83l-.2-.21c-.6-.62-1.22-1.29-1.86-2-3.17-3.44-6.61-7.5-8.29-9.52l.59,1.5h0s.53,1.51,1.39,3.6c.37.91.8,1.94,1.27,3,1.56,3.5,3.62,7.44,5.45,9.07,3.61,3.22,5.93,8.31,18.66,8.33.92,0,1.88,0,2.91-.08,15.32-.88,18.92-6.33,21.93-13.58,1.18-2.88,2-5.44,2.67-7.48.43-1.4.73-2.55.94-3.4a2.68,2.68,0,0,0,.07-.27l0-.09-.06.09Z" transform="translate(-9.95)"/><path class="cls-1" d="M153.25,50.26a10.19,10.19,0,0,1-1.59,1.31,19.23,19.23,0,0,1-2.09,1.24,43.11,43.11,0,0,1-6,2.41c-6.62,2.18-14.4,3.65-18,4.92l.3.24,10.58.62,14.06,11.42a32.59,32.59,0,0,0,1.79-3.22,2.56,2.56,0,0,1,.11-.24,46.55,46.55,0,0,0,2.46-6.36c.34-1.07.66-2.22,1-3.46a91.8,91.8,0,0,0,2.36-15.29A37.74,37.74,0,0,1,153.25,50.26Z" transform="translate(-9.95)"/><path class="cls-1" d="M22.15,69.36v-.24c-.1-.2-.19-.4-.28-.59C22,68.81,22.05,69.09,22.15,69.36Z" transform="translate(-9.95)"/><path class="cls-1" d="M36.17,58.58c-.94-.57-1.85-1.15-2.71-1.74S31.75,55.63,31,55a21.05,21.05,0,0,1-1.87-1.69,37.82,37.82,0,0,1-4.93-6.46,93.47,93.47,0,0,0,2.25,14.9c.41,1.69.85,3.24,1.3,4.64.23.7.46,1.36.69,2,.3.83.61,1.59.92,2.31a34.55,34.55,0,0,0,2.6,5l20.83-9.08A120.85,120.85,0,0,1,36.17,58.58Z" transform="translate(-9.95)"/><path class="cls-1" d="M70.19,176l-3.42-1.13a18.22,18.22,0,0,0,1,2.88l.47.54.54.62c.92.49,2,.95,2,.95Z" transform="translate(-9.95)"/><path class="cls-1" d="M75.6,176.7a15.93,15.93,0,0,0-4.53-.95c-1,0-.4,4.45.8,5.29a10.3,10.3,0,0,0,3.81,1.07Z" transform="translate(-9.95)"/><path class="cls-1" d="M82.52,184.09l-.12-4.21A9,9,0,0,0,78.7,177a13.52,13.52,0,0,0-2.86-.48s-.24,4.87.16,5.82S82.52,184.09,82.52,184.09Z" transform="translate(-9.95)"/><path class="cls-1" d="M87.29,176.78l-2.09-.15a3.67,3.67,0,0,0-2.52,2.51c-.4,1.12,0,5.22,0,5.22A14.27,14.27,0,0,0,87,185a16.05,16.05,0,0,0,5.1-.72l-.24-4S89.49,177.57,87.29,176.78Z" transform="translate(-9.95)"/><polygon class="cls-1" points="104.36 177.79 105.47 174.64 101.81 175.71 102.92 178.68 104.36 177.79"/><path class="cls-1" d="M108.76,181v.18a5.31,5.31,0,0,0,1.75-.72,16.71,16.71,0,0,0,1.59-1.25s-.08-.59-.16-1.9a1.84,1.84,0,0,0-2.15-1.9,2,2,0,0,0-1.27,1.37l.22,4,0,.23Z" transform="translate(-9.95)"/><path class="cls-1" d="M73.59,182.64l-1-.18-.41.15,1.39,1.48a1.71,1.71,0,0,1,.09-.3Z" transform="translate(-9.95)"/><path class="cls-1" d="M112.89,181.74l-.59-.22-1,.18-.07,2.11v0C111.82,183.13,112.38,182.42,112.89,181.74Z" transform="translate(-9.95)"/><path class="cls-1" d="M77,187.41l.58.45c0-.1,0-.2.07-.31a20.73,20.73,0,0,1,.16-2.54.33.33,0,0,1,.15-.24c-.07-1-.07-1.61-1.42-1.72s-2.15-.71-2.79.48c0,.09-.08.17-.12.26l0,.41A39.76,39.76,0,0,0,77,187.41Z" transform="translate(-9.95)"/><path class="cls-1" d="M73.63,183.79a1.71,1.71,0,0,0-.09.3l.11.11Z" transform="translate(-9.95)"/><path class="cls-1" d="M77.65,187.55a1.42,1.42,0,0,0,.08.42,18.17,18.17,0,0,0,1.82,1.18l.09,0c1.91.36,3.1.83,3.26.65a17.66,17.66,0,0,0,.48-2.79,1,1,0,0,1,.37-.83l0-.12a3.15,3.15,0,0,0-2.7-1.9,6,6,0,0,0-3.11.59,1.09,1.09,0,0,0,0,.18A12.11,12.11,0,0,1,77.65,187.55Z" transform="translate(-9.95)"/><path class="cls-1" d="M77.81,185a20.73,20.73,0,0,0-.16,2.54A12.11,12.11,0,0,0,78,185a1.09,1.09,0,0,1,0-.18A.33.33,0,0,0,77.81,185Z" transform="translate(-9.95)"/><path class="cls-1" d="M84.81,190.42a11.41,11.41,0,0,0,3.1-.12.92.92,0,0,0,0-.19,8.61,8.61,0,0,1-.12-1.58,6.19,6.19,0,0,0-.37-1.62c-.31-.59-.88-.83-1.91-.83-.68,0-1.36-.15-1.77.12-.13.62-.71,3.47-.85,3.62C82.9,189.82,83.22,190.24,84.81,190.42Z" transform="translate(-9.95)"/><path class="cls-1" d="M83.38,187a17.66,17.66,0,0,1-.48,2.79c.14-.15.72-3,.85-3.62A1,1,0,0,0,83.38,187Z" transform="translate(-9.95)"/><path class="cls-1" d="M87.92,190.11c0,.23.07.37.07.37s1.11.23,3,.53a3.51,3.51,0,0,0,2.87-.59s-.16-1.49-.14-2.43l0-.19c-.15-1.07-1.91-1.07-3.18-1.07a3.35,3.35,0,0,0-2.15.24c-.43.23-.57.88-.58,1.56A12.36,12.36,0,0,1,87.92,190.11Z" transform="translate(-9.95)"/><path class="cls-1" d="M87.92,190.11a12.36,12.36,0,0,0-.12-1.58A8.61,8.61,0,0,0,87.92,190.11Z" transform="translate(-9.95)"/><path class="cls-1" d="M95.46,191.07a12.43,12.43,0,0,0,3.9-.53,14.09,14.09,0,0,0-.3-2.34c0-.17-.08-.33-.12-.47a4.46,4.46,0,0,0-.29-.76c-.64-1.19-3-.42-3.63-.23,0,0-.82.37-1.14.49-.1,0-.13.35-.14.76a22.26,22.26,0,0,1,.14,2.43A3,3,0,0,0,95.46,191.07Z" transform="translate(-9.95)"/><path class="cls-1" d="M93.88,190.42a22.26,22.26,0,0,0-.14-2.43C93.72,188.93,93.88,190.42,93.88,190.42Z" transform="translate(-9.95)"/><path class="cls-1" d="M107.63,185.37a1.68,1.68,0,0,1,.46,1.07l.1.12h.31a27.51,27.51,0,0,0,2.69-2.72v0l-.23-1.53s-1.75.18-3.26.36-.79,1.36-.79,1.36l-.37.5A3.73,3.73,0,0,1,107.63,185.37Z" transform="translate(-9.95)"/><polygon class="cls-1" points="101.25 183.84 101.25 183.81 101.24 183.84 101.25 183.84"/><path class="cls-1" d="M108.76,181v-.23l-.38-3.88a4,4,0,0,0-3.1-1c-2.07.12-3.81,2.71-3.81,2.71l.28,4.68Z" transform="translate(-9.95)"/><polygon class="cls-1" points="98.82 181.04 98.8 180.81 98.81 181.04 98.82 181.04"/><path class="cls-1" d="M103.88,187.13l.09.08,0,.07a1.77,1.77,0,0,1,.14.29,7.31,7.31,0,0,1,.12,1.1c0,.07,0,.12,0,.14a4.72,4.72,0,0,0,1.94-.51A20.35,20.35,0,0,0,108,187a1.39,1.39,0,0,0,.09-.54l-1.57-1.9,0,0a3.51,3.51,0,0,0-2.26-.32c-1.51.24-1.19,1.43-1.19,1.43v.82A2.34,2.34,0,0,1,103.88,187.13Z" transform="translate(-9.95)"/><path class="cls-1" d="M108.09,186.44a1.68,1.68,0,0,0-.46-1.07,3.73,3.73,0,0,0-1.08-.87l0,0Z" transform="translate(-9.95)"/><path class="cls-1" d="M107.31,187.81A1.59,1.59,0,0,0,108,187a20.35,20.35,0,0,1-1.77,1.32A7.12,7.12,0,0,0,107.31,187.81Z" transform="translate(-9.95)"/><path class="cls-1" d="M99.82,190.47l4.47-1.18s0-.28,0-.62-.22-1.15-.26-1.39l-.11-.15-.78-.69h0a1.88,1.88,0,0,0-.64-.23,9,9,0,0,0-2.78.24s-.64.17-.8.65a1.83,1.83,0,0,0,.06.64,3.59,3.59,0,0,1,.12.47C99.34,189.2,99.82,190.47,99.82,190.47Z" transform="translate(-9.95)"/><path class="cls-1" d="M98.94,187.73c0,.14.08.3.12.47A3.59,3.59,0,0,0,98.94,187.73Z" transform="translate(-9.95)"/><path class="cls-1" d="M104,187.28c0,.24.17,1,.26,1.39a7.31,7.31,0,0,0-.12-1.1A1.77,1.77,0,0,0,104,187.28Z" transform="translate(-9.95)"/><path class="cls-1" d="M103.88,187.13a2.34,2.34,0,0,0-.78-.7h0Z" transform="translate(-9.95)"/><path class="cls-1" d="M94.13,177.41A10.72,10.72,0,0,0,92,179.47l.09,4.77a20.68,20.68,0,0,0,5.88.48,6.87,6.87,0,0,0,3.66-1.31l-.08-2.61c0-.48-.08-3.75-2.46-4-.71-.07-1.32-.13-1.86-.15s-1.3.13-1.92.18A4.13,4.13,0,0,0,94.13,177.41Z" transform="translate(-9.95)"/><path class="cls-1" d="M95.29,176.85c.62,0,1.25-.1,1.92-.18A6.34,6.34,0,0,0,95.29,176.85Z" transform="translate(-9.95)"/><path class="cls-1" d="M95.07,133.78c6.62-18.5,55.75-15.94,59.73-4.53a1.46,1.46,0,0,1,.48.89,5.36,5.36,0,0,0-1-2.47,4,4,0,0,1-.69-.78.75.75,0,0,1-.07-.12,18.52,18.52,0,0,0-7-4,61,61,0,0,0-19.17-2.8c-14.64,0-30.21,4.25-32.84,14.94h0A4.2,4.2,0,0,1,95.07,133.78Z" transform="translate(-9.95)"/><path class="cls-1" d="M154.25,127.67a7.88,7.88,0,0,0-.76-.9.75.75,0,0,0,.07.12A4,4,0,0,0,154.25,127.67Z" transform="translate(-9.95)"/><path class="cls-1" d="M95.55,133.26c3.76-8.91,18-12.71,31.73-12.7a60.69,60.69,0,0,1,19,2.76c4.22,1.46,7.19,3.45,8.16,5.74a1.55,1.55,0,0,1,.36.19c-4-11.41-53.11-14-59.73,4.53A2.65,2.65,0,0,1,95.55,133.26Z" transform="translate(-9.95)"/><path class="cls-1" d="M154,129.54c-1.64,0-5.93,3.21-11.11,6.48s-11.44,6.56-17.44,6.56h-.16c-5.9-.06-11.56-2.44-16.4-4.79s-8.87-4.68-11.34-4.66c-1.71,0-2.7,1-2.94,4.17q0,.51,0,1c0,7.1,4.91,11.78,11.57,14.87l.88.4c.89.38,1.8.74,2.74,1.07,1.56.56,3.17,1.05,4.81,1.47,1,.26,2,.49,3,.7a112.7,112.7,0,0,0,22,2.24h.9a5.43,5.43,0,0,0,2.54-1.18,26.42,26.42,0,0,0,6.39-7.85,41.57,41.57,0,0,0,1.9-3.71,39.49,39.49,0,0,0,3.15-10.43,28.64,28.64,0,0,0,.33-4.21c0-.12,0-.24,0-.36s0-.48,0-.73C154.71,129.72,154.51,129.57,154,129.54Z" transform="translate(-9.95)"/><path class="cls-1" d="M143,157.85a26.27,26.27,0,0,0,6.39-7.85,41.57,41.57,0,0,0,1.9-3.71,41.57,41.57,0,0,1-1.9,3.71A26.42,26.42,0,0,1,143,157.85Z" transform="translate(-9.95)"/><path class="cls-1" d="M154.48,135.86a28.64,28.64,0,0,0,.33-4.21c0-.12,0-.24,0-.36,0,.12,0,.24,0,.36A28.64,28.64,0,0,1,154.48,135.86Z" transform="translate(-9.95)"/><path class="cls-1" d="M94.59,138.29h0c0,7.1,4.91,11.78,11.57,14.87C99.5,150.07,94.58,145.39,94.59,138.29Z" transform="translate(-9.95)"/><path class="cls-1" d="M109.78,154.63c-.94-.33-1.85-.69-2.74-1.07C107.93,153.94,108.84,154.3,109.78,154.63Z" transform="translate(-9.95)"/><path class="cls-1" d="M86.57,133.78a4.73,4.73,0,0,1,.68,1.48v-.07C84.79,124.33,69.09,120,54.35,120a61,61,0,0,0-19.17,2.8,21,21,0,0,0-6,3,4.84,4.84,0,0,1-.18.49C39.45,117.55,80.54,117,86.57,133.78Z" transform="translate(-9.95)"/><path class="cls-1" d="M27.53,140.23l0-.12Z" transform="translate(-9.95)"/><path class="cls-1" d="M42,159.57h0Z" transform="translate(-9.95)"/><path class="cls-1" d="M41.12,159.3v.27h0Z" transform="translate(-9.95)"/><path class="cls-1" d="M26.84,129.26a5.17,5.17,0,0,1,.58-1.18,3.55,3.55,0,0,1-.44.21,5.24,5.24,0,0,0-.63,1.87A1.45,1.45,0,0,1,26.84,129.26Z" transform="translate(-9.95)"/><path class="cls-1" d="M29.13,144.93c-.05-.12-.09-.25-.14-.37C29,144.68,29.08,144.81,29.13,144.93Z" transform="translate(-9.95)"/><path class="cls-1" d="M31.74,150.27c-.37-.63-.72-1.28-1.06-2C31,149,31.37,149.64,31.74,150.27Z" transform="translate(-9.95)"/><path class="cls-1" d="M28.26,142.62a.65.65,0,0,0,0-.13A.65.65,0,0,1,28.26,142.62Z" transform="translate(-9.95)"/><path class="cls-1" d="M29.61,146.05l-.33-.77Z" transform="translate(-9.95)"/><path class="cls-1" d="M29,126.35a4.84,4.84,0,0,0,.18-.49,8.16,8.16,0,0,0-2.2,2.43,3.55,3.55,0,0,0,.44-.21A7.93,7.93,0,0,1,29,126.35Z" transform="translate(-9.95)"/><path class="cls-1" d="M30.63,148.22c-.33-.65-.65-1.33-1-2C30,146.89,30.3,147.57,30.63,148.22Z" transform="translate(-9.95)"/><path class="cls-1" d="M28.35,127.34a3.94,3.94,0,0,1-.93.74,5.17,5.17,0,0,0-.58,1.18.92.92,0,0,1,.35-.19A6,6,0,0,1,28.35,127.34Z" transform="translate(-9.95)"/><path class="cls-1" d="M28.44,127.24a17.63,17.63,0,0,1,6.92-3.92,60.58,60.58,0,0,1,19-2.76c13.69,0,28,3.79,31.73,12.7a2.71,2.71,0,0,1,.49.52c-6-16.8-47.12-16.23-57.57-7.43a4.1,4.1,0,0,1-.3.54C28.62,127,28.53,127.13,28.44,127.24Z" transform="translate(-9.95)"/><path class="cls-1" d="M28.35,127.34l.09-.1c.09-.11.18-.23.26-.35a4.1,4.1,0,0,0,.3-.54,7.93,7.93,0,0,0-1.58,1.73A3.94,3.94,0,0,0,28.35,127.34Z" transform="translate(-9.95)"/><path class="cls-1" d="M87,137.3c-.23-3.2-1.23-4.15-2.94-4.17-2.46,0-6.51,2.3-11.33,4.65s-10.51,4.74-16.41,4.8h-.15c-6,0-12.23-3.3-17.45-6.56s-9.46-6.53-11.1-6.48c-.5,0-.7.18-.78,1h0c0,.18,0,.36,0,.54s0,.36,0,.55a36.89,36.89,0,0,0,3.76,15.26,91.14,91.14,0,0,0,5,8c.07.1.14.21.22.31,2,2.27,3.88,3.68,5.29,3.81h.92a107.94,107.94,0,0,0,25-2.94c9.14-2.37,17.54-6.63,19.55-14.21a13.92,13.92,0,0,0,.46-3.6C87.05,138,87,137.64,87,137.3Z" transform="translate(-9.95)"/><path class="cls-1" d="M35.85,155.22c-.08-.1-.15-.21-.22-.31a91.14,91.14,0,0,1-5-8C31.1,148,31.64,149,32.2,150A33.77,33.77,0,0,0,35.85,155.22Z" transform="translate(-9.95)"/><path class="cls-1" d="M67,156.1a107.94,107.94,0,0,1-25,2.94h0a107.88,107.88,0,0,0,25-2.94c9.14-2.37,17.54-6.63,19.55-14.21C84.58,149.47,76.18,153.73,67,156.1Z" transform="translate(-9.95)"/><path class="cls-1" d="M26.84,131.1c0-.18,0-.36,0-.54h0C26.84,130.74,26.84,130.92,26.84,131.1Z" transform="translate(-9.95)"/><path class="cls-1" d="M255.3,69.85l.37.53v2.7l-.16,10.31L243,85.72v.21l-1.43,77.78q-.79.38-19.88,3.6l-.53-.53,1.48-77.47-11.95,2-.53-.53.16-3.06V83.18l.21-5.39Q212.47,77,255.3,69.85Z" transform="translate(-9.95)"/><path class="cls-1" d="M287.5,73.18q18.72,0,27,24.75a67.09,67.09,0,0,1,2.27,16.87v4q0,22.74-12.16,36.7a25.38,25.38,0,0,1-19,8.19q-16.5,0-25.07-19.83-4-9.82-4-23.32v-.37q0-30.61,18.09-43.36A26.84,26.84,0,0,1,287.5,73.18Zm-20,45.27q.38,31.1,12.06,39.5a10.59,10.59,0,0,0,5.87,2h1.74q11.52,0,16.92-22.47a113.73,113.73,0,0,0,1.53-19q0-31-12.32-39.66A12,12,0,0,0,287,77h-.16q-13.8,0-18.45,27.13Q267.67,111.37,267.46,118.45Z" transform="translate(-9.95)"/><path class="cls-1" d="M319.86,97.56H320a4.67,4.67,0,0,1,1.58.9c0,.32,3.27.53,9.79.63h1q11.32,0,11.32-.74a6,6,0,0,1,1.48-.79h.1c.25,0,.48,1,.69,3l.9,5.35q0,.26-1.17.42c-1.16-2.64-2.06-4.22-2.69-4.71,0-.25-.86-.51-2.59-.79-1.45-.14-2.77-.21-4-.21h-2.22v23.58q0,2.91.9,2.91c0,.07.23.11.69.11h2.69l.22.26v1c0,.22-.13.36-.38.43-.91-.07-2.41-.11-4.49-.11h-2.43c-2.65,0-4.44,0-5.4.11-.24,0-.37-.14-.37-.43v-.89c0-.25.06-.37.16-.37h2.81c1,0,1.53-.44,1.53-1.33l.05-.37.11-9.94v-15h-2.54q-5.24,0-6.19,1.11a9.84,9.84,0,0,0-2.43,3.86c-.17.38-.3.58-.37.58h-.05c-.64,0-1-.14-1.17-.42l2.12-8Z" transform="translate(-9.95)"/><path class="cls-1" d="M382.79,87.83a44.8,44.8,0,0,1,18.5,3.86q5.77,3.75,5.77,10v.79q0,4.55-7.72,28.39a25.37,25.37,0,0,0-1,4.87V137q0,3.06,6.77,3.54c.85,0,1.27.16,1.27.48-.63,2.57-1.18,3.86-1.64,3.86a41,41,0,0,1-9.15,1.42h-1.58q-11.16,0-13.64-6.23l-.48-2.75h-.16q-8.62,6.07-16.71,6.08-12.9,0-15.91-8.36l-.32-2.54V131.4q0-5.39,5.13-11.42c2.57-2.39,6.38-4.27,11.42-5.6l23.11-4.71c.7,0,1.25-1.16,1.64-3.49a29.79,29.79,0,0,0,1.58-7.88c0-3-1.49-4.93-4.49-5.81l-1.75-.16H382a14.85,14.85,0,0,0-5,1.32v5.13q0,5.93-6.4,8.19l-2.43.32h-.79q-6.34,0-8.52-3.07a6.92,6.92,0,0,1-1.11-3.38q0-9.11,17.35-12.32A42.9,42.9,0,0,1,382.79,87.83Zm-16.34,42.89c0,2.92,1.81,4.6,5.44,5h.8a12.12,12.12,0,0,0,8.19-3.54l5-17.82q-9.89,2.37-13.48,4.81Q366.45,124.11,366.45,130.72Z" transform="translate(-9.95)"/><path class="cls-1" d="M431.7,69.48l.21.21v.16l-3,72.82,25.39-2.44v.21l-.74,21.31c0,.74-.25,1.12-.75,1.12l-45.52,4.44-.21-.21.21-.75,3.86-94.65Q411.6,71.34,431.7,69.48Z" transform="translate(-9.95)"/><path class="cls-1" d="M478.81,69.48l.21.21v.16l-3,72.82,25.38-2.44v.21l-.74,21.31c0,.74-.25,1.12-.74,1.12l-45.53,4.44-.21-.21.21-.75,3.86-94.65Q458.72,71.34,478.81,69.48Z" transform="translate(-9.95)"/><path class="cls-1" d="M501.71,73.61l.16-.11h16.18c.28,0,1.17,2.4,2.69,7.19L528,102q.48-.26,8.57-22.79A33.45,33.45,0,0,1,539,73.5h15.86l.31.27-33.25,87.61H506l-.32-.31,14.55-38.18Z" transform="translate(-9.95)"/><path class="cls-1" d="M585.89,84.34l7.35.53L604,124.74h.16L624.33,85h.16q.74.85,5.07,16l8.25,26.76H638q16.44-36,17.45-37.39h.16c5,.21,7.56.52,7.56.9l-26.23,55h-.21q-.8-1.2-3.75-12.05l-9.68-31.78h-.21q-17.82,35.37-21,41h-.21l-16.34-59,.16-.16Z" transform="translate(-9.95)"/><path class="cls-1" d="M669.65,91.53c2.18,0,3.79,1.15,4.81,3.44a6.22,6.22,0,0,1,.26,1.8c0,2.08-1.12,3.65-3.38,4.7a5.57,5.57,0,0,1-1.69.27,4.89,4.89,0,0,1-4.82-3.44,4.54,4.54,0,0,1-.32-1.69c0-2,1.08-3.61,3.23-4.71A7,7,0,0,1,669.65,91.53ZM676,102l11.42,36.86-8.77,2.7L667.32,104.7Z" transform="translate(-9.95)"/><path class="cls-1" d="M714.33,75.51h.79q13.8,0,21.2,10.68,3.49,8.67,3.49,15l.37,2.8q0,.48-22,1.85l-.47-.68c-.42-9.88-1.1-14.81-2-14.81a2.12,2.12,0,0,0-1.85-.69c-1.76,0-2.65,1.29-2.65,3.86q2.55,43.68,3.34,43.68c.8,1.8,1.81,2.7,3,2.7,2.22,0,3.33-1.91,3.33-5.71v-.32L720,121q0-.63,15.5-1.32l5-.53q1,0,1,5.71l.16,5q0,14.65-12.32,21.36-6.24,3-15.54,3-16.71,0-21.68-13.54-2.55-3.39-4.34-39.87v-2q0-11.79,6.51-16.39Q701.9,75.52,714.33,75.51Z" transform="translate(-9.95)"/><path class="cls-1" d="M765.88,71.86l.37.37-11,63,30.51-23.42h9.94v.15q-1.26,1.28-30.35,22.37l-2,1.59,25.22,29.29-.21.16h-9.94q-20.52-23.58-23.59-27.5h-.15l-5,27.5h-7.08l-.37-.37,16.5-93.12Z" transform="translate(-9.95)"/><path class="cls-1" d="M815.69,69.48h2.91q12.48,0,16.39,12.91,1.9,6.44,1.91,17.5.57,6.87,1.53,32.36,0,.38-23.11,1.37c.18,10.41.76,15.6,1.75,15.6,0,.43.77.81,2.32,1.17,2.44,0,3.65-1.68,3.65-5l-.21-5.39a2.77,2.77,0,0,1,1.53-.58l14.07-.58q.8,0,.79,10.2,0,12.63-11.74,17.13a31.49,31.49,0,0,1-7.93,1.17H816.7q-13.76,0-17.35-14.07-.69,0-3.28-61.6Q796.07,69.49,815.69,69.48ZM813.21,91.8l1.37,26.81.58-.21,6.51-.22q-.9-30.39-2.28-30.4a3,3,0,0,0-2.53-1.38h-.16Q813.21,86.4,813.21,91.8Z" transform="translate(-9.95)"/><path class="cls-1" d="M887.08,71.44H898.5l.58.58V165.3l-.58.58H887.08l-.59-.58v-7.46q-8.93,9.47-19.19,9.47-19,0-26-20a53.83,53.83,0,0,1-2-14.86v-.58q0-25.13,18.62-34.06A25.94,25.94,0,0,1,866.77,96h2.54a26.54,26.54,0,0,1,17.18,6.29V72Zm-35.22,60.39v.58q0,19.6,10.89,24a18.55,18.55,0,0,0,5.45,1.17q9.78,0,18.29-11.42V113.79q-7.71-8.3-16-8.3H867.3q-10.57,0-14.59,16A53.66,53.66,0,0,0,851.86,131.83Z" transform="translate(-9.95)"/><path class="cls-3" d="M930.88,74.26a21.22,21.22,0,0,1,2.76.1,9.13,9.13,0,0,1,1.85.42,4.53,4.53,0,0,1,1.38.75,3,3,0,0,1,.88,1.1A5,5,0,0,1,938,80a3.16,3.16,0,0,1-.73,1.36,4.37,4.37,0,0,1-1.42,1,12.32,12.32,0,0,1-5,.61V74.26m4.34,10.83a6.54,6.54,0,0,0,2.25-.69A6.25,6.25,0,0,0,939.31,83a7,7,0,0,0,1.63-4.77,6.91,6.91,0,0,0-.54-2.48,6.38,6.38,0,0,0-1.28-2,5.9,5.9,0,0,0-2-1.38,14.28,14.28,0,0,0-5.61-.76H927.9V95.48h3V85.38h1.24l7,10.1h3.6Z" transform="translate(-9.95)"/><path class="cls-3" d="M936.85,98.78a14.88,14.88,0,0,0,6.56-2.72,14.11,14.11,0,0,0,1.82-1.54,15.85,15.85,0,0,0,1.55-1.82,15,15,0,0,0,2.16-13.64,14.14,14.14,0,0,0-.91-2.2,14.66,14.66,0,0,0-1.25-2A14.94,14.94,0,0,0,945.23,73a13.43,13.43,0,0,0-1.82-1.55,15,15,0,0,0-13.64-2.17,16.23,16.23,0,0,0-2.2.92,15.27,15.27,0,0,0-2,1.25A14,14,0,0,0,923.72,73,15.17,15.17,0,0,0,920,88.46a14.81,14.81,0,0,0,2.16,4.24,15.85,15.85,0,0,0,1.55,1.82,14.73,14.73,0,0,0,1.81,1.54,15,15,0,0,0,11.32,2.72m.52,3.24a18.53,18.53,0,0,0,5.5-1.79,18.29,18.29,0,0,0,4.68-3.4,18.81,18.81,0,0,0,1.88-2.2A18.48,18.48,0,0,0,951,75.37a18.5,18.5,0,0,0-1.52-2.48,18.81,18.81,0,0,0-1.88-2.2,17.36,17.36,0,0,0-2.21-1.89,18.5,18.5,0,0,0-19.26-1.51,19.09,19.09,0,0,0-2.48,1.51,18.76,18.76,0,0,0-2.2,1.89,18,18,0,0,0-1.89,2.2,18.31,18.31,0,0,0-2.62,16.58A19,19,0,0,0,918,92.16a19.41,19.41,0,0,0,1.51,2.47,17.26,17.26,0,0,0,1.89,2.2,18.76,18.76,0,0,0,2.2,1.89,18.37,18.37,0,0,0,13.77,3.3Z" transform="translate(-9.95)"/><path class="cls-1" d="M885.64,196.36v-6h3.17a2.87,2.87,0,0,1,2.2.82,3.08,3.08,0,0,1,.79,2.24,2.9,2.9,0,0,1-.82,2.15,3,3,0,0,1-2.13.8ZM879.18,210h6.46v-8.47h2.76l4.22,8.47h7.09l-5.34-9.55a8.33,8.33,0,0,0,2.88-2.9,8.16,8.16,0,0,0,1.08-4.27,9.26,9.26,0,0,0-.63-3.55,6.94,6.94,0,0,0-1.8-2.56,7.52,7.52,0,0,0-2.78-1.54,11.76,11.76,0,0,0-3.64-.53h-10.3ZM858,210h18.7v-5.71H864.59v-4.25h9.29v-5.38h-9.29v-3.85H875.9v-5.71H858Zm-20.2,0h18.14V204.2H844.39V185.12h-6.61Zm-10.15,0h6.61v-24.9h-6.61Zm-17.4-10,2.88-9.15,2.76,9.15Zm-9.82,10h6.84l1.64-5.15h8.32l1.61,5.15H826l-8.81-24.9h-7.58Zm-10.34,0h6.69V190.91h7.57v-5.79H782.42v5.79h7.65Zm-27.36,0h18.7v-5.71H769.32v-4.25h9.29v-5.38h-9.29v-3.85h11.31v-5.71H762.71Zm-16.05-13.66v-6h3.17a2.87,2.87,0,0,1,2.2.82,3.08,3.08,0,0,1,.79,2.24,2.9,2.9,0,0,1-.82,2.15,3,3,0,0,1-2.13.8ZM740.2,210h6.46v-8.47h2.76l4.22,8.47h7.09l-5.34-9.55a8.33,8.33,0,0,0,2.88-2.9,8.16,8.16,0,0,0,1.08-4.27,9.26,9.26,0,0,0-.63-3.55,7.06,7.06,0,0,0-1.8-2.56,7.6,7.6,0,0,0-2.78-1.54,11.76,11.76,0,0,0-3.64-.53H740.2Zm-18.4-9.11h4.33v2.39a6.69,6.69,0,0,1-2.17,1,9.06,9.06,0,0,1-2.35.3,7.14,7.14,0,0,1-2.76-.51,5.79,5.79,0,0,1-2.09-1.42,6.52,6.52,0,0,1-1.35-2.2,8.79,8.79,0,0,1,0-5.64,6.61,6.61,0,0,1,1.28-2.24,6.17,6.17,0,0,1,2.08-1.51,6.81,6.81,0,0,1,2.83-.56,6.14,6.14,0,0,1,3.08.75,11.37,11.37,0,0,1,2.48,1.9l4.3-4.33a10.13,10.13,0,0,0-4.54-3.41,16.09,16.09,0,0,0-5.8-1,13.67,13.67,0,0,0-5.25,1,11.94,11.94,0,0,0-6.75,6.85,14.08,14.08,0,0,0-1,5.25A16.1,16.1,0,0,0,709,203a11,11,0,0,0,6.65,6.74,15.38,15.38,0,0,0,5.43.91,20.71,20.71,0,0,0,5.8-.84A13.8,13.8,0,0,0,732,207V195.8H721.8ZM683.46,210H690v-14.3l9.93,14.3h5.64v-24.9H699V199l-9.55-13.89h-6Zm-10.16,0h6.61v-24.9H673.3Zm-14.89-13.47v-6.2h3.1a2.77,2.77,0,0,1,2.2.86,3.32,3.32,0,0,1,.75,2.27,3.14,3.14,0,0,1-.79,2.21,2.74,2.74,0,0,1-2.12.86ZM652,210h6.46v-8.29h3.88a10.26,10.26,0,0,0,3.49-.57,7.75,7.75,0,0,0,2.73-1.68,8.05,8.05,0,0,0,1.79-2.65,9,9,0,0,0,.65-3.46,9.38,9.38,0,0,0-.63-3.56,7,7,0,0,0-1.79-2.58,8,8,0,0,0-2.78-1.57,11.55,11.55,0,0,0-3.64-.54H652Zm-17.43-10,2.87-9.15,2.77,9.15Zm-9.82,10h6.83l1.64-5.15h8.33l1.6,5.15h7.13l-8.81-24.9h-7.57Zm-11.76,0h7l9.07-24.9h-7l-5.23,17.32-5.6-17.32h-7.2Zm-28.26-13.66v-6h3.17a2.91,2.91,0,0,1,2.21.82,3.12,3.12,0,0,1,.78,2.24,2.86,2.86,0,0,1-.82,2.15,3,3,0,0,1-2.13.8ZM578.22,210h6.46v-8.47h2.76l4.22,8.47h7.1l-5.34-9.55a8.39,8.39,0,0,0,2.87-2.9,8.16,8.16,0,0,0,1.08-4.27,9.26,9.26,0,0,0-.63-3.55,6.92,6.92,0,0,0-1.79-2.56,7.6,7.6,0,0,0-2.78-1.54,11.85,11.85,0,0,0-3.64-.53H578.22ZM557,210h18.7v-5.71H563.63v-4.25h9.29v-5.38h-9.29v-3.85h11.31v-5.71H557Zm-10.15,0h6.6v-24.9h-6.6Zm-30,0h6.35l.48-14.59,4.85,8.51h3.63l4.36-8.51.6,14.59h6.68l-1.15-24.9h-6.35L530.4,196l-6-10.87h-6.31Zm-20.68,0h18.7v-5.71H502.82v-4.25h9.29v-5.38h-9.29v-3.85h11.31v-5.71H496.21Zm-16-13.66v-6h3.17a2.87,2.87,0,0,1,2.2.82,3.08,3.08,0,0,1,.79,2.24,2.9,2.9,0,0,1-.82,2.15,3,3,0,0,1-2.13.8ZM473.7,210h6.46v-8.47h2.76l4.22,8.47h7.09l-5.34-9.55a8.42,8.42,0,0,0,2.88-2.9,8.16,8.16,0,0,0,1.08-4.27,9.26,9.26,0,0,0-.63-3.55,7.06,7.06,0,0,0-1.8-2.56,7.52,7.52,0,0,0-2.78-1.54,11.76,11.76,0,0,0-3.64-.53H473.7Zm-14.9-13.47v-6.2h3.1a2.79,2.79,0,0,1,2.21.86,3.37,3.37,0,0,1,.74,2.27,3.17,3.17,0,0,1-.78,2.21,2.74,2.74,0,0,1-2.13.86ZM452.35,210h6.45v-8.29h3.89a10.26,10.26,0,0,0,3.49-.57,7.7,7.7,0,0,0,2.72-1.68,7.9,7.9,0,0,0,1.79-2.65,8.78,8.78,0,0,0,.66-3.46,9.19,9.19,0,0,0-.64-3.56,6.84,6.84,0,0,0-1.79-2.58,8,8,0,0,0-2.78-1.57,11.5,11.5,0,0,0-3.64-.54H452.35ZM424.12,207a13,13,0,0,0,4.28,2.67,17.17,17.17,0,0,0,6.25,1,13,13,0,0,0,3.94-.58,10.31,10.31,0,0,0,3.21-1.62,8.09,8.09,0,0,0,2.17-2.5,6.53,6.53,0,0,0,.8-3.18,7.61,7.61,0,0,0-.67-3.34,7.22,7.22,0,0,0-1.72-2.28,8.47,8.47,0,0,0-2.35-1.45c-.87-.36-1.73-.68-2.58-.95l-1.19-.38-1.48-.5a5.82,5.82,0,0,1-1.17-.54,2.52,2.52,0,0,1-.77-.71,1.65,1.65,0,0,1-.28-1,1.54,1.54,0,0,1,.24-.88,2,2,0,0,1,.64-.58,3,3,0,0,1,.88-.33,4,4,0,0,1,1-.12,7.28,7.28,0,0,1,2.91.62,13.69,13.69,0,0,1,2.72,1.59l3.36-4.26a8,8,0,0,0-1.19-1,10.23,10.23,0,0,0-1.91-1,13.63,13.63,0,0,0-2.61-.82,14.74,14.74,0,0,0-3.32-.34,12.7,12.7,0,0,0-4.14.62,8.56,8.56,0,0,0-3,1.71,7.57,7.57,0,0,0-1.85,2.58,8,8,0,0,0-.63,3.19,5.77,5.77,0,0,0,.58,2.67,6.68,6.68,0,0,0,1.51,2,9.58,9.58,0,0,0,2.11,1.44,17,17,0,0,0,2.33,1l1.38.45a13.18,13.18,0,0,1,2.89,1.26,1.88,1.88,0,0,1,1,1.61,1.61,1.61,0,0,1-.26,1,1.94,1.94,0,0,1-.67.6,2.91,2.91,0,0,1-.93.31,5.16,5.16,0,0,1-1,.1,8.06,8.06,0,0,1-3.7-.86,10.85,10.85,0,0,1-2.72-1.9Zm-8.32-12.58h4.67l2.87-9.26h-6.57Zm-18.59,9.82V190.91h2.69a8.54,8.54,0,0,1,3,.48,5.68,5.68,0,0,1,2.11,1.37,5.46,5.46,0,0,1,1.25,2.09,8.5,8.5,0,0,1,.41,2.7,6.25,6.25,0,0,1-6.79,6.65ZM390.6,210h9.52a17.78,17.78,0,0,0,5.3-.76,11.65,11.65,0,0,0,4.26-2.32,11,11,0,0,0,2.82-3.84,13.21,13.21,0,0,0,1-5.4,14.45,14.45,0,0,0-1-5.63,10.42,10.42,0,0,0-2.8-3.92,11.8,11.8,0,0,0-4.24-2.28,18.1,18.1,0,0,0-5.32-.75H390.6Zm-20.19,0h18.14V204.2H377V185.12h-6.6Zm-16.06-13.66v-6h3.18a2.89,2.89,0,0,1,2.2.82,3.12,3.12,0,0,1,.78,2.24,2.86,2.86,0,0,1-.82,2.15,2.91,2.91,0,0,1-2.13.8ZM347.9,210h6.45v-8.47h2.77l4.22,8.47h7.09l-5.34-9.55a8.39,8.39,0,0,0,2.87-2.9,8.07,8.07,0,0,0,1.09-4.27,9.07,9.07,0,0,0-.64-3.55,6.92,6.92,0,0,0-1.79-2.56,7.6,7.6,0,0,0-2.78-1.54,11.8,11.8,0,0,0-3.64-.53H347.9Zm-18.13-6.14a5.6,5.6,0,0,1-1.92-1.47,6.53,6.53,0,0,1-1.19-2.21,8.79,8.79,0,0,1,0-5.37,6.39,6.39,0,0,1,1.19-2.2,5.5,5.5,0,0,1,1.92-1.48,6.51,6.51,0,0,1,5.19,0,5.5,5.5,0,0,1,1.92,1.48,6.41,6.41,0,0,1,1.2,2.2,9,9,0,0,1,0,5.37,6.55,6.55,0,0,1-1.2,2.21,5.6,5.6,0,0,1-1.92,1.47,6.51,6.51,0,0,1-5.19,0m7.79,5.75a12.12,12.12,0,0,0,6.79-6.87,14.67,14.67,0,0,0,0-10.49,12.45,12.45,0,0,0-2.69-4.14,12.08,12.08,0,0,0-4.1-2.71,13.66,13.66,0,0,0-5.19-1,13.44,13.44,0,0,0-5.17,1,12.17,12.17,0,0,0-6.82,6.85,14.67,14.67,0,0,0,0,10.49,12.29,12.29,0,0,0,2.71,4.15,12.76,12.76,0,0,0,4.11,2.72,13.27,13.27,0,0,0,5.17,1,13.48,13.48,0,0,0,5.19-1m-46.33.39h7l3.92-15.75L306.09,210H313l6.2-24.9h-6.76l-3.17,16.69-4-16.09h-6l-3.92,16.09-3.21-16.69h-7Zm-30.43,0h18.71v-5.71h-12.1v-4.25h9.3v-5.38h-9.3v-3.85h11.31v-5.71H260.8Zm-25.94,0h6.61v-9.74h9.18V210h6.61v-24.9h-6.61v9.11h-9.18v-9.11h-6.61Zm-16.31,0h6.68V190.91h7.58v-5.79H210.89v5.79h7.66Z" transform="translate(-9.95)"/></svg>